<?xml version="1.0" encoding="UTF-8"?>
<svg version="1.1" xmlns="http://www.w3.org/2000/svg" width="278" height="293">
<path d="M0 0 C91.74 0 183.48 0 278 0 C278 96.69 278 193.38 278 293 C186.26 293 94.52 293 0 293 C0 196.31 0 99.62 0 0 Z " fill="#FDFDFD" transform="translate(0,0)"/>
<path d="M0 0 C91.74 0 183.48 0 278 0 C278 96.69 278 193.38 278 293 C186.26 293 94.52 293 0 293 C0 196.31 0 99.62 0 0 Z M50 58 C49.24203125 58.69480469 48.4840625 59.38960937 47.703125 60.10546875 C27.11081049 79.59715956 13.65809335 111.21580202 12.6640625 139.375 C12.16241024 176.22714696 23.55485792 208.6083133 49.09741211 235.49389648 C71.33031633 258.23979726 101.42618078 270.66418457 133 272 C133.90234375 272.05285156 134.8046875 272.10570312 135.734375 272.16015625 C167.8831508 273.20453738 200.11200123 260.4175455 223.5625 238.74609375 C245.30597273 218.07897264 261.9496619 187.61387774 263.11010742 157.10522461 C263.1707675 153.67370691 263.18561737 150.24453771 263.1875 146.8125 C263.19974609 145.65685547 263.21199219 144.50121094 263.22460938 143.31054688 C263.24232484 132.79346664 261.84027389 122.82004037 258.8125 112.75 C258.59964355 112.0389209 258.38678711 111.3278418 258.16748047 110.59521484 C254.42186294 98.53310183 249.29638641 87.33782748 242 77 C241.03513672 75.59041016 241.03513672 75.59041016 240.05078125 74.15234375 C221.95731205 48.76797568 196.69406552 33.3721847 167 25 C166.32179199 24.80647949 165.64358398 24.61295898 164.94482422 24.41357422 C123.99385552 13.3145154 79.69718356 29.5654518 50 58 Z " fill="#050505" transform="translate(0,0)"/>
<path d="M0 0 C3.96 0 7.92 0 12 0 C12 4.62 12 9.24 12 14 C16.62 14 21.24 14 26 14 C26 9.38 26 4.76 26 0 C29.96 0 33.92 0 38 0 C38 13.2 38 26.4 38 40 C34.04 40 30.08 40 26 40 C26 34.72 26 29.44 26 24 C21.38 24 16.76 24 12 24 C12 29.28 12 34.56 12 40 C8.04 40 4.08 40 0 40 C0 26.8 0 13.6 0 0 Z " fill="#010101" transform="translate(63,101)"/>
<path d="M0 0 C3.63 0 7.26 0 11 0 C11 13.2 11 26.4 11 40 C7.7 40 4.4 40 1 40 C0.67 39.01 0.34 38.02 0 37 C-0.40476563 37.47695312 -0.80953125 37.95390625 -1.2265625 38.4453125 C-4.32507075 41.1616259 -8.00607817 41.0915714 -12 41 C-15.75182781 39.74939073 -17.35602666 37.80834207 -19.3125 34.5 C-21.60057838 29.43821027 -21.82561578 24.45406788 -21 19 C-18.8807513 14.60452122 -16.61176678 11.74222301 -12 10 C-8.17497477 10.01992201 -4.44856632 10.27571684 -1 12 C-0.67 8.04 -0.34 4.08 0 0 Z " fill="#040404" transform="translate(203,101)"/>
<path d="M0 0 C4.30828333 2.20509986 6.86926714 4.96386702 8.87890625 9.3046875 C9.66136122 14.18494788 9.54067961 18.70225412 7.31640625 23.1796875 C3.8085649 27.67692 0.81855606 29.83960857 -4.73828125 30.71875 C-10.56303544 31.02531601 -14.78939127 30.26284567 -19.52734375 26.77734375 C-23.46236385 23.14130802 -24.30272766 19.47628392 -24.55859375 14.3046875 C-24.38779983 9.56515623 -23.42152848 6.85900182 -20.12109375 3.3046875 C-14.11525628 -1.35290075 -7.33029943 -2.40293425 0 0 Z " fill="#060606" transform="translate(169.12109375,111.6953125)"/>
<path d="M0 0 C3.67898023 3.57413882 5.90458058 6.56870864 6.25 11.75 C6.16419371 16.49508789 4.97193126 19.95626172 1.60546875 23.4453125 C-3.30286305 27.79446726 -7.42477896 28.30189125 -13.75390625 28.21875 C-18.98897968 27.70889937 -22.69097313 24.92180962 -26 21 C-27.64866896 16.05399313 -27.70531168 11.15010603 -27 6 C-25.0196227 2.13228327 -22.33581007 -0.16963158 -18.6875 -2.4375 C-11.88495139 -3.86128924 -6.13288603 -3.53820348 0 0 Z " fill="#070707" transform="translate(135,114)"/>
<path d="M0 0 C3.63 0 7.26 0 11 0 C11 4.62 11 9.24 11 14 C11.845625 13.34 12.69125 12.68 13.5625 12 C17.5265716 9.69363107 19.4897723 9.42597102 24 10 C27.5386994 11.65139305 28.81070153 12.71605229 31 16 C31.22705078 18.54370117 31.22705078 18.54370117 31.1953125 21.54296875 C31.18886719 22.61611328 31.18242187 23.68925781 31.17578125 24.79492188 C31.15902344 25.91447266 31.14226562 27.03402344 31.125 28.1875 C31.11597656 29.31865234 31.10695312 30.44980469 31.09765625 31.61523438 C31.07406965 34.41024629 31.03819841 37.20514959 31 40 C27.37 40 23.74 40 20 40 C19.505 30.595 19.505 30.595 19 21 C17.35 20.67 15.7 20.34 14 20 C11.64641749 22.35358251 11.72128096 22.92968394 11.5859375 26.1328125 C11.52792969 27.34130859 11.52792969 27.34130859 11.46875 28.57421875 C11.42234375 29.83685547 11.42234375 29.83685547 11.375 31.125 C11.31699219 32.39923828 11.31699219 32.39923828 11.2578125 33.69921875 C11.16343506 35.79911684 11.08062414 37.89952891 11 40 C7.37 40 3.74 40 0 40 C0 26.8 0 13.6 0 0 Z " fill="#050505" transform="translate(178,157)"/>
<path d="M0 0 C3.06937553 1.86708557 4.24977022 3.77877986 5.6953125 7.03125 C5.6953125 10.00125 5.6953125 12.97125 5.6953125 16.03125 C-1.5646875 16.03125 -8.8246875 16.03125 -16.3046875 16.03125 C-15.3146875 17.35125 -14.3246875 18.67125 -13.3046875 20.03125 C-10.29191642 20.35872512 -7.87298586 20.16584698 -4.9296875 19.46875 C-1.21660784 18.84990339 1.97894877 19.46434706 5.6953125 20.03125 C2.95490537 24.77426233 0.97050797 27.33565146 -4.3046875 29.03125 C-10.66707236 29.66049685 -17.05812395 30.12612887 -22.3046875 26.03125 C-25.89899691 22.03437794 -27.63122408 18.30086199 -27.8671875 12.90625 C-27.596772 8.26648938 -26.52976462 5.50440997 -23.3046875 2.03125 C-16.23637205 -3.34066974 -8.11019024 -3.54615606 0 0 Z " fill="#050505" transform="translate(130.3046875,168.96875)"/>
<path d="M0 0 C12.54 0 25.08 0 38 0 C38 2.97 38 5.94 38 9 C33.71 9 29.42 9 25 9 C25 19.23 25 29.46 25 40 C21.04 40 17.08 40 13 40 C13 29.77 13 19.54 13 9 C8.71 9 4.42 9 0 9 C0 6.03 0 3.06 0 0 Z " fill="#020202" transform="translate(65,157)"/>
<path d="M0 0 C2.76260939 2.0028918 4.6089762 3.9759643 6.5 6.8125 C6.5 7.4725 6.5 8.1325 6.5 8.8125 C4.87675914 9.03412329 3.251279 9.23939803 1.625 9.4375 C0.72007812 9.55351562 -0.18484375 9.66953125 -1.1171875 9.7890625 C-1.90351563 9.79679688 -2.68984375 9.80453125 -3.5 9.8125 C-4.16 9.1525 -4.82 8.4925 -5.5 7.8125 C-8.5 7.47916667 -8.5 7.47916667 -11.5 7.8125 C-13.68939909 9.59357249 -13.68939909 9.59357249 -13.765625 11.90625 C-13.76046875 12.7003125 -13.7553125 13.494375 -13.75 14.3125 C-13.75515625 15.1065625 -13.7603125 15.900625 -13.765625 16.71875 C-13.68939909 19.03142751 -13.68939909 19.03142751 -11.5 20.8125 C-7.93407381 20.64832968 -7.93407381 20.64832968 -4.5 19.8125 C-4.17 19.1525 -3.84 18.4925 -3.5 17.8125 C0.13 18.1425 3.76 18.4725 7.5 18.8125 C5.23417011 24.47707472 3.02468214 27.05015893 -2.5 29.8125 C-10.14849205 30.46502869 -16.36876951 30.74414191 -22.5 25.8125 C-26.58572075 20.23224007 -26.52567201 14.48347074 -25.5 7.8125 C-20.39622752 -2.04818664 -9.87230571 -3.3495323 0 0 Z " fill="#060606" transform="translate(166.5,168.1875)"/>
<path d="M0 0 C2.12507645 1.61668496 2.90844456 2.50452352 3.3984375 5.15625 C3.39070312 5.9296875 3.38296875 6.703125 3.375 7.5 C3.38273438 8.2734375 3.39046875 9.046875 3.3984375 9.84375 C2.90836323 12.49591661 2.12263747 13.38009245 0 15 C-2.5 15.4375 -2.5 15.4375 -5 15 C-7.15926208 13.21302449 -7.87841815 11.82775588 -8.28515625 9.05859375 C-8.41347709 6.02910599 -8.38184375 3.64310527 -6.8125 1 C-4.33474158 -0.36703913 -2.78844081 -0.41826612 0 0 Z " fill="#F2F2F2" transform="translate(164,119)"/>
<path d="M0 0 C2.875 0.75 2.875 0.75 3.875 1.75 C4.078125 3.9296875 4.078125 3.9296875 4.125 6.625 C4.16367188 7.95144531 4.16367188 7.95144531 4.203125 9.3046875 C3.875 11.75 3.875 11.75 2.5546875 13.58203125 C0.875 14.75 0.875 14.75 -2.25 14.5625 C-3.19875 14.294375 -4.1475 14.02625 -5.125 13.75 C-6.28843227 11.42313547 -6.32395988 9.90278587 -6.375 7.3125 C-6.41367188 6.13880859 -6.41367188 6.13880859 -6.453125 4.94140625 C-6.125 2.75 -6.125 2.75 -4.8046875 0.94921875 C-3.125 -0.25 -3.125 -0.25 0 0 Z " fill="#F8F8F8" transform="translate(125.125,119.25)"/>
<path d="M0 0 C2.4375 0.8125 2.4375 0.8125 4.4375 2.8125 C5.00622038 9.8646327 5.00622038 9.8646327 2.9375 13.3125 C2.4425 13.8075 1.9475 14.3025 1.4375 14.8125 C-0.9375 14.5 -0.9375 14.5 -3.5625 13.8125 C-6.09936376 10.00720436 -6.15605135 7.27340938 -5.5625 2.8125 C-3.92391781 -0.03345855 -3.27337134 -0.23951498 0 0 Z " fill="#F1F1F1" transform="translate(198.5625,119.1875)"/>
<path d="M0 0 C0.66 1.32 1.32 2.64 2 4 C-1.63 4 -5.26 4 -9 4 C-8.67 3.01 -8.34 2.02 -8 1 C-5.29120665 -0.35439668 -2.99066732 -0.06501451 0 0 Z " fill="#F1F1F1" transform="translate(123,175)"/>
</svg>
