<?xml version="1.0" encoding="UTF-8"?>
<svg version="1.1" xmlns="http://www.w3.org/2000/svg" width="59" height="32">
<path d="M0 0 C1.85620458 3.18297623 1.44586233 6.56538791 1.32421875 10.13671875 C1.30391602 11.26110352 1.30391602 11.26110352 1.28320312 12.40820312 C1.24790414 14.25551642 1.19409792 16.10245941 1.13671875 17.94921875 C-0.72968106 18.82201737 -2.60688736 19.67172902 -4.48828125 20.51171875 C-5.53242187 20.98738281 -6.5765625 21.46304687 -7.65234375 21.953125 C-11.20768879 23.0560605 -13.29191357 22.84474188 -16.86328125 21.94921875 C-17.19328125 20.62921875 -17.52328125 19.30921875 -17.86328125 17.94921875 C-19.84328125 17.61921875 -21.82328125 17.28921875 -23.86328125 16.94921875 C-23.53328125 12.65921875 -23.20328125 8.36921875 -22.86328125 3.94921875 C-20.4949909 2.90970199 -18.12074231 1.89279547 -15.73828125 0.88671875 C-15.073125 0.59216797 -14.40796875 0.29761719 -13.72265625 -0.00585938 C-8.73694288 -2.08323994 -4.9646525 -2.79977258 0 0 Z " fill="#9EA9B0" transform="translate(40.86328125,5.05078125)"/>
<path d="M0 0 C0 3.3 0 6.6 0 10 C-1.76755526 10.84026396 -3.53917263 11.67198722 -5.3125 12.5 C-6.29863281 12.9640625 -7.28476562 13.428125 -8.30078125 13.90625 C-11 15 -11 15 -14 15 C-14 11.7 -14 8.4 -14 5 C-11.85494956 4.16465351 -9.70893835 3.33177374 -7.5625 2.5 C-6.36753906 2.0359375 -5.17257813 1.571875 -3.94140625 1.09375 C-1 0 -1 0 0 0 Z " fill="#0C6AAC" transform="translate(33,5)"/>
<path d="M0 0 C0.66 0 1.32 0 2 0 C2.33 1.98 2.66 3.96 3 6 C1.13360019 6.87279862 -0.74360611 7.72251027 -2.625 8.5625 C-4.19121094 9.27599609 -4.19121094 9.27599609 -5.7890625 10.00390625 C-9.34440754 11.10684175 -11.42863232 10.89552313 -15 10 C-15 9.01 -15 8.02 -15 7 C-13.73160474 6.49384702 -12.46016898 5.99530901 -11.1875 5.5 C-10.12595703 5.08234375 -10.12595703 5.08234375 -9.04296875 4.65625 C-7 4 -7 4 -4 4 C-2.64631404 2.68733482 -1.31200404 1.35432675 0 0 Z " fill="#9BA2A7" transform="translate(39,17)"/>
<path d="M0 0 C-1.41225926 0.67595315 -2.83002905 1.34040059 -4.25 2 C-5.43335938 2.556875 -5.43335938 2.556875 -6.640625 3.125 C-9 4 -9 4 -13 4 C-13 7.3 -13 10.6 -13 14 C-10.36 13.01 -7.72 12.02 -5 11 C-4.67 11.99 -4.34 12.98 -4 14 C-4.66 14 -5.32 14 -6 14 C-5.67 14.99 -5.34 15.98 -5 17 C-12.75 17.125 -12.75 17.125 -15 16 C-14.67 11.71 -14.34 7.42 -14 3 C-3.82142857 -1.41964286 -3.82142857 -1.41964286 0 0 Z " fill="#7E8A91" transform="translate(32,6)"/>
<path d="M0 0 C0.66 0 1.32 0 2 0 C2 2.97 2 5.94 2 9 C1.0925 9.144375 0.185 9.28875 -0.75 9.4375 C-3.21476956 9.86409473 -5.58847107 10.35074221 -8 11 C-8 9.68 -8 8.36 -8 7 C-7.34 7 -6.68 7 -6 7 C-6.33 6.01 -6.66 5.02 -7 4 C-6 3 -6 3 -2.9375 2.9375 C-1.4834375 2.9684375 -1.4834375 2.9684375 0 3 C0 2.01 0 1.02 0 0 Z " fill="#CCD0D1" transform="translate(34,13)"/>
<path d="M0 0 C0 3.3 0 6.6 0 10 C-1.65 10 -3.3 10 -5 10 C-5.33 7.69 -5.66 5.38 -6 3 C-1.125 0 -1.125 0 0 0 Z " fill="#0B497B" transform="translate(33,5)"/>
<path d="M0 0 C1.32 0.33 2.64 0.66 4 1 C5.25 4.0625 5.25 4.0625 6 7 C4.6875 8.5 4.6875 8.5 3 10 C2.01 10 1.02 10 0 10 C0 6.7 0 3.4 0 0 Z " fill="#356B8F" transform="translate(19,10)"/>
<path d="M0 0 C0.33 0 0.66 0 1 0 C1 3.96 1 7.92 1 12 C0.67 11.34 0.34 10.68 0 10 C-1.32 10.33 -2.64 10.66 -4 11 C-4 9.35 -4 7.7 -4 6 C-3.01 5.67 -2.02 5.34 -1 5 C-0.67 3.35 -0.34 1.7 0 0 Z " fill="#C8CACC" transform="translate(41,7)"/>
<path d="M0 0 C-0.33 1.32 -0.66 2.64 -1 4 C-8.42857143 6.42857143 -8.42857143 6.42857143 -12 5 C-10.71735273 2.43470546 -9.77227651 2.33500137 -7.125 1.375 C-6.42632812 1.11460938 -5.72765625 0.85421875 -5.0078125 0.5859375 C-3 0 -3 0 0 0 Z " fill="#9CB2C0" transform="translate(35,21)"/>
<path d="M0 0 C0.66 0.33 1.32 0.66 2 1 C2 1.66 2 2.32 2 3 C1.34 3 0.68 3 0 3 C0.33 3.99 0.66 4.98 1 6 C-6.75 6.125 -6.75 6.125 -9 5 C-7.29356132 1.58712264 -3.46676025 1.15558675 0 0 Z " fill="#9EA6AA" transform="translate(26,17)"/>
<path d="M0 0 C2.875 0.3125 2.875 0.3125 6 1 C6.66 1.99 7.32 2.98 8 4 C6.35 4.66 4.7 5.32 3 6 C3 6.99 3 7.98 3 9 C2.34 8.67 1.68 8.34 1 8 C1.020625 7.05125 1.04125 6.1025 1.0625 5.125 C1.22551826 2.09333717 1.22551826 2.09333717 0 0 Z " fill="#C6C8CA" transform="translate(33,3)"/>
<path d="M0 0 C-0.33 1.65 -0.66 3.3 -1 5 C-1.99 5.33 -2.98 5.66 -4 6 C-4 5.01 -4 4.02 -4 3 C-4.66 2.67 -5.32 2.34 -6 2 C-2.25 0 -2.25 0 0 0 Z " fill="#337FB0" transform="translate(27,8)"/>
<path d="M0 0 C1.32 1.65 2.64 3.3 4 5 C3.34 5.66 2.68 6.32 2 7 C1.01 7 0.02 7 -1 7 C-0.67 4.69 -0.34 2.38 0 0 Z " fill="#154976" transform="translate(21,12)"/>
</svg>
